<svg xmlns="http://www.w3.org/2000/svg" width="999.999" height="1144.143" viewBox="0 0 111 127"><path data-name="Ellipse 1 copy 5" d="M43 109a4 4 0 11-4 4 4 4 0 014-4zm-20.5-9a5.5 5.5 0 11-5.5 5.5 5.5 5.5 0 015.5-5.5zM34 86a8 8 0 11-8 8 8 8 0 018-8zm-1.5-16a6.5 6.5 0 11-6.5 6.5 6.5 6.5 0 016.5-6.5zM14 81a4 4 0 11-4 4 4 4 0 014-4zm25-21a4 4 0 11-4 4 4 4 0 014-4zm-18-4a8 8 0 11-8 8 8 8 0 018-8zM5 59a5 5 0 11-5 5 5 5 0 015-5zm27.5-14a6.5 6.5 0 11-6.5 6.5 6.5 6.5 0 016.5-6.5zm-18-5a3.5 3.5 0 11-3.5 3.5 3.5 3.5 0 013.5-3.5zM46 43a4 4 0 11-4 4 4 4 0 014-4zm17-7a4 4 0 11-4 4 4 4 0 014-4zm-13.5-9a6.5 6.5 0 11-6.5 6.5 6.5 6.5 0 016.5-6.5zm-17-1a7.5 7.5 0 11-7.5 7.5 7.5 7.5 0 017.5-7.5zM21 18a5 5 0 11-5 5 5 5 0 015-5zm21.5-7a3.5 3.5 0 11-3.5 3.5 3.5 3.5 0 013.5-3.5zm41 0a3.5 3.5 0 11-3.5 3.5 3.5 3.5 0 013.5-3.5zm-21 3a7.5 7.5 0 11-7.5 7.5 7.5 7.5 0 017.5-7.5zM62 0a5 5 0 11-5 5 5 5 0 015-5zm13.5 26a6.5 6.5 0 11-6.5 6.5 6.5 6.5 0 016.5-6.5zM80 42a4 4 0 11-4 4 4 4 0 014-4zm12.5-16a6.5 6.5 0 11-6.5 6.5 6.5 6.5 0 016.5-6.5zm12-10a5.5 5.5 0 11-5.5 5.5 5.5 5.5 0 015.5-5.5zM64 117a5 5 0 11-5 5 5 5 0 015-5zm20-8a4 4 0 11-4 4 4 4 0 014-4zM64 83a4 4 0 11-4 4 4 4 0 014-4zm-17-6a4 4 0 11-4 4 4 4 0 014-4zm33-1a4 4 0 11-4 4 4 4 0 014-4zM64 98a8 8 0 11-8 8 8 8 0 018-8zm13-11a7 7 0 11-7 7 7 7 0 017-7zm17-1a7 7 0 11-7 7 7 7 0 017-7zm11.5 12a5.5 5.5 0 11-5.5 5.5 5.5 5.5 0 015.5-5.5zm-54-10a6.5 6.5 0 11-6.5 6.5 6.5 6.5 0 016.5-6.5z" fill="#fff" fill-rule="evenodd"/></svg>