<svg xmlns="http://www.w3.org/2000/svg" viewBox="0 0 468.293 468.293"><path fill="#e1e6e9" d="M91.457 0L15.61 75.847v392.446h343.414V0z"/><path d="M316.368 323.188c-7.674-8.763-18.889-14.841-31.567-17.115-20.046-3.592-39.079-4.915-56.968-4.585-16.281-16.442-32.023-35.851-42.766-57.17 9.397-30.994 14.368-57.796 17.165-72.896 1.44-7.762-.712-16.02-5.761-22.092-4.771-5.733-11.672-9.019-18.934-9.019h-.017c-7.062.003-13.062 2.889-17.349 8.344-14.352 18.275-4.543 62.514-2.424 71.219 2.169 8.819 5.249 17.404 9.036 25.726-7.451 23.488-17.499 48.996-31.1 73.129-45.396 16.556-72.442 39.307-74.661 41.22-7.535 7.329-11.26 14.688-11.065 21.878.111 4.073 1.574 10.095 7.924 15.639 4.865 4.243 11.088 6.364 17.41 6.364a28.73 28.73 0 0018.222-6.539c21.914-18.033 39.474-40.411 53.564-64.177 21.091-7.184 46.063-12.859 74.166-14.204 20.212 19.57 40.358 34.509 52.992 43.18 13.418 9.208 31.35 8.013 42.655-2.825 10.572-10.151 10.377-23.638-.522-36.077zM82.66 384.101c-4.065 3.347-10.026 3.57-13.545.495-1.351-1.184-2.052-2.269-2.08-3.228-.022-.787.339-3.77 5.505-8.816.378-.32 17.338-14.585 46.964-28.364-10.554 14.704-22.748 28.313-36.844 39.913zm90.948-224.895c.879-1.118 1.841-1.813 3.926-1.813 2.98 0 4.916 1.793 5.805 2.861a9.908 9.908 0 012.102 8.052v.003c-2.046 11.021-5.288 28.52-10.643 49.311-.156-.601-.311-1.201-.462-1.804-4.437-18.246-7.596-47.867-.728-56.61zm-14.725 152.155c7.49-15.083 13.746-30.349 18.984-45.115 8.113 13.126 17.699 25.378 27.775 36.533a283.304 283.304 0 00-46.759 8.582zm146.175 35.581c-5.477 5.269-14.38 5.708-21.158 1.062-9.308-6.389-22.932-16.359-37.511-29.112a272.515 272.515 0 0135.398 3.995c8.88 1.59 16.598 5.694 21.736 11.555 6.645 7.593 3.693 10.429 1.535 12.5z" fill="#e56353"/><path fill="#ebf0f3" d="M91.457 75.847V0L15.61 75.847z"/><path d="M440.195 128.496H277.854c-6.897 0-12.488-5.591-12.488-12.488V46.495c0-6.897 5.591-12.488 12.488-12.488h162.341c6.897 0 12.488 5.591 12.488 12.488v69.513c0 6.897-5.591 12.488-12.488 12.488z" fill="#27a2db"/><path d="M322.012 59.637c3.646 3.046 5.47 7.741 5.47 14.085s-1.86 10.988-5.585 13.936c-3.72 2.948-9.427 4.421-17.116 4.421h-9.293v15.36h-8.841V55.064h17.982c7.944 0 13.737 1.524 17.383 4.573zm-6.256 21.616c1.774-1.875 2.659-4.622 2.659-8.244 0-3.619-1.122-6.18-3.372-7.68-2.25-1.497-5.768-2.247-10.567-2.247h-8.988v20.979h10.262c4.896 0 8.232-.936 10.006-2.808zm61.775-19.332c5.049 4.57 7.567 10.927 7.567 19.07 0 8.14-2.445 14.585-7.341 19.329-4.896 4.747-12.39 7.119-22.476 7.119h-17.384V55.064h17.982c9.389 0 16.609 2.287 21.652 6.857zm-1.348 19.292c0-11.988-6.866-17.982-20.604-17.982h-8.841v35.89h9.817c6.341 0 11.201-1.509 14.573-4.534 3.372-3.02 5.055-7.477 5.055-13.374zm29.146-17.905v14.384h23.226v8.168h-23.226v21.579h-8.841V55.064h34.915l-.073 8.244h-26.001z" fill="#ebf0f3"/></svg>